<svg xmlns="http://www.w3.org/2000/svg" width="1600" height="1000" viewBox="0 0 1600 1000" fill="none">
  <defs>
    <linearGradient id="bg" x1="0" y1="0" x2="1" y2="1">
      <stop offset="0%" stop-color="#F5F3EF"/>
      <stop offset="100%" stop-color="#E8F1FF"/>
    </linearGradient>
    <linearGradient id="wallet" x1="0" y1="0" x2="1" y2="1">
      <stop offset="0%" stop-color="#2F343B"/>
      <stop offset="100%" stop-color="#414753"/>
    </linearGradient>
  </defs>

  <rect width="1600" height="1000" fill="url(#bg)"/>

  <circle cx="1240" cy="220" r="140" fill="#FFE9B3"/>
  <circle cx="360" cy="220" r="110" fill="#E3F2D8"/>

  <rect x="640" y="270" width="420" height="250" rx="24" fill="#F2C94C"/>
  <rect x="680" y="310" width="120" height="70" rx="10" fill="#D9A83F"/>
  <rect x="680" y="310" width="70" height="70" rx="10" fill="#F7D77B"/>

  <rect x="560" y="360" width="520" height="290" rx="28" fill="url(#wallet)"/>
  <rect x="560" y="430" width="520" height="70" rx="28" fill="#262A30"/>
  <circle cx="980" cy="465" r="12" fill="#F2C94C"/>

  <rect x="400" y="520" width="200" height="200" rx="24" fill="#2D9CDB"/>
  <rect x="520" y="540" width="560" height="220" rx="110" fill="#F3C6A6"/>
  <rect x="520" y="540" width="120" height="110" rx="55" fill="#F6D0B6"/>
  <rect x="600" y="540" width="120" height="110" rx="55" fill="#F6D0B6"/>
  <rect x="680" y="540" width="120" height="110" rx="55" fill="#F6D0B6"/>
  <rect x="760" y="540" width="120" height="110" rx="55" fill="#F6D0B6"/>

  <path d="M1110 370c40 0 72 32 72 72" stroke="#2D9CDB" stroke-width="10" stroke-linecap="round"/>
  <path d="M1110 400c24 0 44 20 44 44" stroke="#2D9CDB" stroke-width="10" stroke-linecap="round"/>
  <path d="M1110 430c10 0 18 8 18 18" stroke="#2D9CDB" stroke-width="10" stroke-linecap="round"/>
</svg>
